<svg height="472pt" viewBox="-4 0 472 472" width="472pt" xmlns="http://www.w3.org/2000/svg"><path d="m240 120h-16v-16c0-22.089844 17.910156-40 40-40 13.238281 0 23.976562-10.722656 24-23.960938v-40.039062h16v40.046875c-.054688 22.0625-17.9375 39.925781-40 39.953125-13.253906 0-24 10.746094-24 24zm0 0" fill="#354468"/><path d="m0 120h464v352h-464zm0 0" fill="#9196a9"/><path d="m0 120h464v64h-464zm0 0" fill="#bec3d1"/><path d="m0 440h464v32h-464zm0 0" fill="#bec3d1"/><path d="m24 144h168v16h-168zm0 0" fill="#e38100"/><path d="m272 144h168v16h-168zm0 0" fill="#e38100"/><path d="m104 416h-.160156c-3.738282-.078125-6.925782-2.734375-7.671875-6.398438l-33.664063-161.601562-22.855468 74.351562-15.296876-4.703124 32-104c1.117188-3.445313 4.382813-5.730469 8-5.601563 3.644532.171875 6.710938 2.789063 7.457032 6.359375l32.878906 157.808594 31.550781-126.152344c.839844-3.359375 3.746094-5.800781 7.203125-6.046875 3.460938-.195313 6.667969 1.816406 8 5.015625l27.488282 68.738281 15.421874-15.425781 11.3125 11.3125-24 24c-1.902343 1.902344-4.632812 2.722656-7.269531 2.179688-2.632812-.539063-4.820312-2.371094-5.820312-4.867188l-22.8125-57.023438-34 136c-.894531 3.558594-4.09375 6.054688-7.761719 6.054688zm0 0" fill="#354468"/><path d="m248 160c-2.128906.023438-4.175781-.8125-5.679688-2.320312-1.507812-1.503907-2.34375-3.550782-2.320312-5.679688.027344-2.117188.855469-4.148438 2.320312-5.679688.765626-.722656 1.660157-1.292968 2.640626-1.679687 2.976562-1.253906 6.417968-.589844 8.71875 1.679687 1.476562 1.523438 2.308593 3.558594 2.320312 5.679688.023438 2.128906-.8125 4.175781-2.320312 5.679688-1.503907 1.507812-3.550782 2.34375-5.679688 2.320312zm0 0" fill="#9196a9"/><path d="m216 160c-2.675781.027344-5.1875-1.300781-6.671875-3.527344-1.484375-2.226562-1.742187-5.050781-.6875-7.511718.726563-2.011719 2.308594-3.59375 4.320313-4.320313 2.976562-1.253906 6.417968-.589844 8.71875 1.679687.722656.765626 1.292968 1.660157 1.679687 2.640626 1.054687 2.460937.796875 5.285156-.6875 7.511718-1.484375 2.226563-3.996094 3.554688-6.671875 3.527344zm0 0" fill="#9196a9"/><path d="m228.289062 235.710938 11.710938-11.710938h40v40l-11.710938 11.710938c-18.113281 18.113281-42.675781 28.289062-68.289062 28.289062 0-25.613281 10.175781-50.175781 28.289062-68.289062zm0 0" fill="#bec3d1"/><path d="m416.003906 64 24.003906-24.003906 24.003907 24.003906-24.003907 24zm0 0" fill="#e38100"/><path d="m240 224 168-167.996094 39.996094 39.996094-167.996094 168zm0 0" fill="#dce1ea"/></svg>